<svg xmlns="http://www.w3.org/2000/svg" xmlns:xlink="http://www.w3.org/1999/xlink" version="1.1" id="Layer_1" x="0px" y="0px" width="90px" height="90px" viewBox="0 0 90 90" enable-background="new 0 0 90 90" xml:space="preserve">
    <path d="M46.453,78.862c0-2.43,1.971-4.404,4.403-4.404c2.427,0,4.397,1.975,4.397,4.404s-1.971,4.4-4.397,4.4  C48.424,83.263,46.453,81.292,46.453,78.862L46.453,78.862z" />
    <path d="M46.453,67.277c0-2.431,1.971-4.401,4.403-4.401c2.427,0,4.397,1.971,4.397,4.401c0,2.433-1.971,4.404-4.397,4.404  C48.424,71.682,46.453,69.71,46.453,67.277L46.453,67.277z" />
    <path d="M58.037,67.277c0-2.431,1.968-4.401,4.4-4.401c2.432,0,4.399,1.971,4.399,4.401c0,2.433-1.968,4.404-4.399,4.404  C60.005,71.682,58.037,69.71,58.037,67.277L58.037,67.277z" />
    <path d="M0.12,55.695c0-2.434,1.971-4.404,4.4-4.404s4.401,1.971,4.401,4.404c0,2.43-1.972,4.403-4.401,4.403  S0.12,58.125,0.12,55.695L0.12,55.695z" />
    <path d="M11.702,55.695c0-2.434,1.971-4.404,4.403-4.404c2.429,0,4.4,1.971,4.4,4.404c0,2.43-1.972,4.403-4.4,4.403  C13.673,60.099,11.702,58.125,11.702,55.695L11.702,55.695z" />
    <path d="M23.285,55.695c0-2.434,1.973-4.404,4.402-4.404s4.404,1.971,4.404,4.404c0,2.43-1.975,4.403-4.404,4.403  S23.285,58.125,23.285,55.695L23.285,55.695z" />
    <path d="M34.87,55.695c0-2.434,1.968-4.404,4.401-4.404s4.399,1.971,4.399,4.404c0,2.43-1.967,4.403-4.399,4.403  S34.87,58.125,34.87,55.695L34.87,55.695z" />
    <path d="M46.453,55.695c0-2.434,1.971-4.404,4.403-4.404c2.427,0,4.397,1.971,4.397,4.404c0,2.43-1.971,4.403-4.397,4.403  C48.424,60.099,46.453,58.125,46.453,55.695L46.453,55.695z" />
    <path d="M58.037,55.695c0-2.434,1.968-4.404,4.4-4.404c2.432,0,4.399,1.971,4.399,4.404c0,2.43-1.968,4.403-4.399,4.403  C60.005,60.099,58.037,58.125,58.037,55.695L58.037,55.695z" />
    <path d="M69.617,55.695c0-2.434,1.974-4.404,4.406-4.404c2.426,0,4.397,1.971,4.397,4.404c0,2.43-1.972,4.403-4.397,4.403  C71.591,60.099,69.617,58.125,69.617,55.695L69.617,55.695z" />
    <path d="M0.12,44.112c0-2.431,1.971-4.403,4.4-4.403s4.401,1.972,4.401,4.403c0,2.429-1.972,4.402-4.401,4.402  S0.12,46.541,0.12,44.112L0.12,44.112z" />
    <path d="M11.702,44.112c0-2.431,1.971-4.403,4.403-4.403c2.429,0,4.4,1.972,4.4,4.403c0,2.429-1.972,4.402-4.4,4.402  C13.673,48.514,11.702,46.541,11.702,44.112L11.702,44.112z" />
    <path d="M23.285,44.112c0-2.431,1.973-4.403,4.402-4.403s4.404,1.972,4.404,4.403c0,2.429-1.975,4.402-4.404,4.402  S23.285,46.541,23.285,44.112L23.285,44.112z" />
    <path d="M34.87,44.112c0-2.431,1.968-4.403,4.401-4.403s4.399,1.972,4.399,4.403c0,2.429-1.967,4.402-4.399,4.402  S34.87,46.541,34.87,44.112L34.87,44.112z" />
    <path d="M46.453,44.112c0-2.431,1.971-4.403,4.403-4.403c2.427,0,4.397,1.972,4.397,4.403c0,2.429-1.971,4.402-4.397,4.402  C48.424,48.514,46.453,46.541,46.453,44.112L46.453,44.112z" />
    <path d="M58.037,44.112c0-2.431,1.968-4.403,4.4-4.403c2.432,0,4.399,1.972,4.399,4.403c0,2.429-1.968,4.402-4.399,4.402  C60.005,48.514,58.037,46.541,58.037,44.112L58.037,44.112z" />
    <path d="M69.617,44.112c0-2.431,1.974-4.403,4.406-4.403c2.426,0,4.397,1.972,4.397,4.403c0,2.429-1.972,4.402-4.397,4.402  C71.591,48.514,69.617,46.541,69.617,44.112L69.617,44.112z" />
    <path d="M81.202,44.112c0-2.431,1.972-4.403,4.401-4.403s4.403,1.972,4.403,4.403c0,2.429-1.974,4.402-4.403,4.402  S81.202,46.541,81.202,44.112L81.202,44.112z" />
    <path d="M0.12,32.528c0-2.431,1.971-4.401,4.4-4.401s4.401,1.97,4.401,4.401c0,2.429-1.972,4.401-4.401,4.401  S0.12,34.958,0.12,32.528L0.12,32.528z" />
    <path d="M11.702,32.528c0-2.431,1.971-4.401,4.403-4.401c2.429,0,4.4,1.97,4.4,4.401c0,2.429-1.972,4.401-4.4,4.401  C13.673,36.93,11.702,34.958,11.702,32.528L11.702,32.528z" />
    <path d="M23.285,32.528c0-2.431,1.973-4.401,4.402-4.401s4.404,1.97,4.404,4.401c0,2.429-1.975,4.401-4.404,4.401  S23.285,34.958,23.285,32.528L23.285,32.528z" />
    <path d="M34.87,32.528c0-2.431,1.968-4.401,4.401-4.401s4.399,1.97,4.399,4.401c0,2.429-1.967,4.401-4.399,4.401  S34.87,34.958,34.87,32.528L34.87,32.528z" />
    <path d="M46.453,32.528c0-2.431,1.971-4.401,4.403-4.401c2.427,0,4.397,1.97,4.397,4.401c0,2.429-1.971,4.401-4.397,4.401  C48.424,36.93,46.453,34.958,46.453,32.528L46.453,32.528z" />
    <path d="M58.037,32.528c0-2.431,1.968-4.401,4.4-4.401c2.432,0,4.399,1.97,4.399,4.401c0,2.429-1.968,4.401-4.399,4.401  C60.005,36.93,58.037,34.958,58.037,32.528L58.037,32.528z" />
    <path d="M69.617,32.528c0-2.431,1.974-4.401,4.406-4.401c2.426,0,4.397,1.97,4.397,4.401c0,2.429-1.972,4.401-4.397,4.401  C71.591,36.93,69.617,34.958,69.617,32.528L69.617,32.528z" />
    <path d="M46.453,20.946c0-2.432,1.971-4.404,4.403-4.404c2.427,0,4.397,1.973,4.397,4.404c0,2.429-1.971,4.399-4.397,4.399  C48.424,25.346,46.453,23.375,46.453,20.946L46.453,20.946z" />
    <path d="M58.037,20.946c0-2.432,1.968-4.404,4.4-4.404c2.432,0,4.399,1.973,4.399,4.404c0,2.429-1.968,4.399-4.399,4.399  C60.005,25.346,58.037,23.375,58.037,20.946L58.037,20.946z" />
    <path d="M46.453,9.361c0-2.432,1.971-4.401,4.403-4.401c2.427,0,4.397,1.97,4.397,4.401c0,2.43-1.971,4.399-4.397,4.399  C48.424,13.761,46.453,11.791,46.453,9.361L46.453,9.361z" />
</svg>